<svg width="16" height="17" viewBox="0 0 16 17" fill="none" xmlns="http://www.w3.org/2000/svg">
<path d="M9.41385 8.00009L15.7069 1.70709C15.8944 1.51959 15.9997 1.26527 15.9997 1.00009C15.9997 0.734917 15.8944 0.480601 15.7069 0.293093C15.5193 0.105585 15.265 0.000244141 14.9998 0.000244141C14.7347 0.000244141 14.4804 0.105585 14.2928 0.293093L7.99985 6.58609L1.70685 0.293093C1.614 0.200249 1.50378 0.1266 1.38247 0.0763533C1.26117 0.0261062 1.13115 0.000244141 0.999849 0.000244141C0.868547 0.000244141 0.738531 0.0261062 0.617224 0.0763533C0.495916 0.1266 0.385694 0.200249 0.292849 0.293093C0.105341 0.480601 0 0.734917 0 1.00009C0 1.26527 0.105341 1.51959 0.292849 1.70709L6.58585 8.00009L0.292849 14.2931C0.105341 14.4806 0 14.7349 0 15.0001C0 15.2653 0.105341 15.5196 0.292849 15.7071C0.480357 15.8946 0.734673 15.9999 0.999849 15.9999C1.26503 15.9999 1.51934 15.8946 1.70685 15.7071L7.99985 9.41409L14.2928 15.7071C14.3855 15.8003 14.4957 15.8742 14.617 15.9247C14.7383 15.9752 14.8684 16.0011 14.9998 16.0011C15.1313 16.0011 15.2614 15.9752 15.3827 15.9247C15.504 15.8742 15.6142 15.8003 15.7069 15.7071C15.7998 15.6143 15.8735 15.5041 15.9238 15.3828C15.9742 15.2615 16 15.1314 16 15.0001C16 14.8688 15.9742 14.7387 15.9238 14.6174C15.8735 14.4961 15.7998 14.3859 15.7069 14.2931L9.41385 8.00009Z" fill="#5C5F62"/>
</svg>
