<svg width="18" height="18" viewBox="0 0 18 18" fill="none" xmlns="http://www.w3.org/2000/svg">
<path d="M7.71387 14.8658C7.71387 15.2068 7.84933 15.5338 8.09044 15.7749C8.33156 16.016 8.65859 16.1515 8.99958 16.1515C9.34057 16.1515 9.6676 16.016 9.90872 15.7749C10.1498 15.5338 10.2853 15.2068 10.2853 14.8658C10.2853 14.5248 10.1498 14.1977 9.90872 13.9566C9.6676 13.7155 9.34057 13.58 8.99958 13.58C8.65859 13.58 8.33156 13.7155 8.09044 13.9566C7.84933 14.1977 7.71387 14.5248 7.71387 14.8658ZM8.35672 11.4908H9.64244C9.73083 11.4908 9.80315 11.4184 9.80315 11.33V2.00861C9.80315 1.92022 9.73083 1.8479 9.64244 1.8479H8.35672C8.26833 1.8479 8.19601 1.92022 8.19601 2.00861V11.33C8.19601 11.4184 8.26833 11.4908 8.35672 11.4908Z" fill="white"/>
</svg>
