<svg width="18" height="18" viewBox="0 0 18 18" fill="none" xmlns="http://www.w3.org/2000/svg">
<path d="M9 18C7.78535 18 6.60586 17.7627 5.49668 17.2934C4.42441 16.8398 3.46289 16.1895 2.63672 15.3633C1.81055 14.5371 1.16016 13.5756 0.706641 12.5033C0.237305 11.3941 0 10.2146 0 9C0 8.6502 0.283008 8.36719 0.632812 8.36719C0.982617 8.36719 1.26562 8.6502 1.26562 9C1.26562 10.0441 1.46953 11.0566 1.87383 12.0111C2.26406 12.9322 2.82129 13.7602 3.53145 14.4703C4.2416 15.1805 5.06953 15.7395 5.99062 16.1279C6.94336 16.5305 7.95586 16.7344 9 16.7344C10.0441 16.7344 11.0566 16.5305 12.0111 16.1262C12.9322 15.7359 13.7602 15.1787 14.4703 14.4686C15.1805 13.7584 15.7395 12.9305 16.1279 12.0094C16.5305 11.0566 16.7344 10.0441 16.7344 9C16.7344 7.95586 16.5305 6.94336 16.1262 5.98887C15.7373 5.06999 15.1744 4.23494 14.4686 3.52969C13.7641 2.8229 12.9288 2.25991 12.0094 1.87207C11.0566 1.46953 10.0441 1.26562 9 1.26562C8.6502 1.26562 8.36719 0.982617 8.36719 0.632812C8.36719 0.283008 8.6502 0 9 0C10.2146 0 11.3941 0.237305 12.5033 0.706641C13.5756 1.16016 14.5371 1.81055 15.3633 2.63672C16.1895 3.46289 16.8381 4.42617 17.2916 5.49668C17.7609 6.60586 17.9982 7.78535 17.9982 9C17.9982 10.2146 17.7609 11.3941 17.2916 12.5033C16.8398 13.5756 16.1895 14.5371 15.3633 15.3633C14.5371 16.1895 13.5738 16.8381 12.5033 17.2916C11.3941 17.7627 10.2146 18 9 18V18Z" fill="white"/>
</svg>
