<svg width="18" height="18" viewBox="0 0 18 18" fill="none" xmlns="http://www.w3.org/2000/svg">
<g clip-path="url(#clip0_9949_58753)">
<path d="M9.19481 0.362579C6.1312 0.354544 3.43522 1.93959 1.89437 4.33423C1.82606 4.4407 1.9024 4.58133 2.02897 4.58133H3.44124C3.53767 4.58133 3.62807 4.53914 3.68834 4.46481C3.82897 4.29405 3.97964 4.12932 4.13834 3.97262C4.79325 3.31972 5.55464 2.80544 6.4024 2.44785C7.2783 2.0782 8.21044 1.88936 9.17272 1.88936C10.135 1.88936 11.0671 2.0762 11.943 2.44785C12.7908 2.80544 13.5522 3.31972 14.2071 3.97262C14.862 4.62553 15.3743 5.38691 15.7339 6.23267C16.1055 7.10856 16.2924 8.0387 16.2924 9.00097C16.2924 9.96325 16.1035 10.8934 15.7339 11.7693C15.3763 12.615 14.862 13.3764 14.2071 14.0293C13.5522 14.6822 12.7908 15.1965 11.943 15.5541C11.0664 15.9243 10.1243 16.1143 9.17272 16.1126C8.21044 16.1126 7.2783 15.9237 6.4024 15.5541C5.5563 15.1969 4.78744 14.6791 4.13834 14.0293C3.97964 13.8706 3.83097 13.7059 3.68834 13.5371C3.62807 13.4628 3.53566 13.4206 3.44124 13.4206H2.02897C1.9024 13.4206 1.82405 13.5612 1.89437 13.6677C3.43321 16.0563 6.11713 17.6394 9.17272 17.6394C13.9178 17.6394 17.7709 13.8204 17.8191 9.08937C17.8674 4.282 14.0082 0.374633 9.19481 0.362579ZM6.6499 11.251V9.72419H0.341867C0.253474 9.72419 0.181152 9.65187 0.181152 9.56347V8.43847C0.181152 8.35008 0.253474 8.27776 0.341867 8.27776H6.6499V6.75097C6.6499 6.61637 6.8066 6.54004 6.91106 6.62441L9.76173 8.87441C9.78094 8.88944 9.79648 8.90865 9.80716 8.93058C9.81784 8.95251 9.8234 8.97658 9.8234 9.00097C9.8234 9.02536 9.81784 9.04944 9.80716 9.07137C9.79648 9.09329 9.78094 9.1125 9.76173 9.12753L6.91106 11.3775C6.8066 11.4599 6.6499 11.3856 6.6499 11.251Z" fill="white"/>
</g>
<defs>
<clipPath id="clip0_9949_58753">
<rect width="18" height="18" fill="white"/>
</clipPath>
</defs>
</svg>
