<svg width="18" height="15" viewBox="0 0 18 15" fill="none" xmlns="http://www.w3.org/2000/svg">
<path d="M3.64238 6.91294C5.21445 6.91294 6.48887 5.63853 6.48887 4.06646C6.48887 2.49439 5.21445 1.21997 3.64238 1.21997C2.07031 1.21997 0.795898 2.49439 0.795898 4.06646C0.795898 5.63853 2.07031 6.91294 3.64238 6.91294Z" fill="white"/>
<path d="M14.3567 14.7882C15.9288 14.7882 17.2032 13.5138 17.2032 11.9417C17.2032 10.3696 15.9288 9.09521 14.3567 9.09521C12.7847 9.09521 11.5103 10.3696 11.5103 11.9417C11.5103 13.5138 12.7847 14.7882 14.3567 14.7882Z" fill="white"/>
<path d="M14.1437 1.21997H10.7558C10.0831 1.21997 9.50068 1.57271 9.17256 2.09771L8.95107 2.62271L3.85693 14.5665H7.25303C7.91748 14.5665 8.89365 13.6887 9.11514 13.0325L14.1437 1.21997Z" fill="white"/>
</svg>
