<svg width="18" height="18" viewBox="0 0 18 18" fill="none" xmlns="http://www.w3.org/2000/svg">
<path d="M9 0C4.02991 0 0 4.02991 0 9C0 13.9701 4.02991 18 9 18C13.9701 18 18 13.9701 18 9C18 4.02991 13.9701 0 9 0ZM9 16.4732C4.87366 16.4732 1.52679 13.1263 1.52679 9C1.52679 7.21205 2.15558 5.56875 3.20424 4.28304L13.717 14.7958C12.4312 15.8444 10.7879 16.4732 9 16.4732ZM14.7958 13.717L4.28304 3.20424C5.56875 2.15558 7.21205 1.52679 9 1.52679C13.1263 1.52679 16.4732 4.87366 16.4732 9C16.4732 10.7879 15.8444 12.4312 14.7958 13.717Z" fill="white"/>
</svg>
